 http://i26.photobucket.com/albums/c119/manojb/good.gif 
http://i26.photobucket.com/albums/c119/manojb/vlcsnap-2013-02-08-00h54m45s74.png 
http://i26.photobucket.com/albums/c119/manojb/vlcsnap-2013-02-08-00h54m54s166.png 
http://i26.photobucket.com/albums/c119/manojb/vlcsnap-2013-02-08-00h55m10s77.png 
http://i26.photobucket.com/albums/c119/manojb/vlcsnap-2013-02-08-00h55m19s166.png

Info - 
Banner
Sangeeta Pictures

Genre
Comedy,Romance,Thriller

Producer
Amit Kumar Bokadia

Star Cast
Govinda.... Basant
Priyanka Chopra.... Priya
Kader Khan.... Basant's Father
Himani Shivpuri.... Basant's Mother
Prem Chopra.... Priya's Father
Nazir Khan.... Vasant
Johny Lever
Shakti Kapoor
Snehal Dhabi

Story / Writers
K.C. Bokadia

Music Director
Bappi Lahiri
Anand Raj Anand

Director
K.C. Bokadia

Singers
Udit Narayan
Anuradha Paudwal
Sunidhi Chauhan
Ila Arun
Sudesh Bhosle
Sukhwinder Singh
Shreya Ghoshal
Govinda
Bappi Lahiri
Vinod Rathod
Sadhna Sargam

Media Info - 
General
Complete name                  : Deewana Main Deewana 2013 DVDScrRip x264 [TMB].avi
Format                         : AVI
Format/Info                    : Audio Video Interleave
File size                      : 605 MiB
Duration                       : 1h 54mn
Overall bit rate               : 740 Kbps

Video
ID                             : 0
Format                         : AVC
Format/Info                    : Advanced Video Codec
Format profile                 : High@L3.1
Format settings, CABAC         : Yes
Format settings, ReFrames      : 2 frames
Codec ID                       : H264
Duration                       : 1h 54mn
Bit rate                       : 600 Kbps
Width                          : 640 pixels
Height                         : 272 pixels
Display aspect ratio           : 2.35:1
Frame rate                     : 23.976 fps
Color space                    : YUV
Chroma subsampling             : 4:2:0
Bit depth                      : 8 bits
Scan type                      : Progressive
Bits/(Pixel*Frame)             : 0.144
Stream size                    : 490 MiB (81%)
Writing library                : x264 core 106

Audio
ID                             : 1
Format                         : MPEG Audio
Format version                 : Version 1
Format profile                 : Layer 3
Codec ID                       : 55
Codec ID/Hint                  : MP3
Duration                       : 1h 54mn
Source duration                : 1h 54mn
Bit rate mode                  : Constant
Bit rate                       : 128 Kbps
Channel(s)                     : 2 channels
Sampling rate                  : 48.0 KHz
Compression mode               : Lossy
Stream size                    : 105 MiB (17%)
Alignment                      : Aligned on interleaves
Interleave, duration           : 24 ms (0.58 video frame)
Writing library                : LAMEUU6ßm
Source                            : ICTV

Ripper : Manojvb

Extreme 24x7 Seeding, Initial seeding will be very slow

Note : My first Screener Release attempt, quality may not as expected.

Enjoy TMB Release!